<svg width="39" height="40" viewBox="0 0 39 40" fill="none" xmlns="http://www.w3.org/2000/svg">
<path d="M38.7954 19.9985C38.7954 30.7116 30.1108 39.3962 19.3977 39.3962C8.68465 39.3962 0 30.7116 0 19.9985C0 9.28548 8.68465 0.60083 19.3977 0.60083C30.1108 0.60083 38.7954 9.28548 38.7954 19.9985Z" fill="url(#paint0_linear_1461_2937)"/>
<path d="M23.8601 21.1378L24.3829 17.8573H21.0594V15.7178C21.0594 14.7907 21.5075 13.935 23.0012 13.935H24.5323V11.118C24.5323 11.118 23.1506 10.8684 21.8436 10.8684C19.1176 10.8684 17.3251 12.473 17.3251 15.3256V17.8573H14.2629V21.1378H17.3251V29.1251H21.0594V21.1378H23.8601Z" fill="white"/>
<defs>
<linearGradient id="paint0_linear_1461_2937" x1="-0.00024396" y1="0.60083" x2="-0.00024396" y2="39.3967" gradientUnits="userSpaceOnUse">
<stop stop-color="#00B2FF"/>
<stop offset="1" stop-color="#006AFF"/>
</linearGradient>
</defs>
</svg>
