<svg width="40" height="40" viewBox="0 0 40 40" fill="none" xmlns="http://www.w3.org/2000/svg">
<path d="M39.6828 19.9985C39.6828 30.7116 30.8705 39.3962 19.9999 39.3962C9.12926 39.3962 0.316895 30.7116 0.316895 19.9985C0.316895 9.28548 9.12926 0.60083 19.9999 0.60083C30.8705 0.60083 39.6828 9.28548 39.6828 19.9985Z" fill="url(#paint0_linear_1461_2940)"/>
<path d="M20.0183 15.8801C17.6547 15.8801 15.7712 17.7343 15.7712 19.9807C15.7712 22.2628 17.6547 24.0813 20.0183 24.0813C22.345 24.0813 24.2654 22.2628 24.2654 19.9807C24.2654 17.7343 22.345 15.8801 20.0183 15.8801ZM20.0183 22.655C18.5041 22.655 17.2485 21.4783 17.2485 19.9807C17.2485 18.5187 18.4672 17.342 20.0183 17.342C21.5325 17.342 22.7512 18.5187 22.7512 19.9807C22.7512 21.4783 21.5325 22.655 20.0183 22.655ZM25.4102 15.7374C25.4102 15.2026 24.9671 14.7747 24.4131 14.7747C23.8591 14.7747 23.416 15.2026 23.416 15.7374C23.416 16.2723 23.8591 16.7002 24.4131 16.7002C24.9671 16.7002 25.4102 16.2723 25.4102 15.7374ZM28.217 16.7002C28.1431 15.4165 27.8477 14.2755 26.8875 13.3484C25.9273 12.4213 24.7455 12.136 23.416 12.0647C22.0495 11.9934 17.9502 11.9934 16.5837 12.0647C15.2542 12.136 14.1093 12.4213 13.1122 13.3484C12.152 14.2755 11.8566 15.4165 11.7827 16.7002C11.7088 18.0195 11.7088 21.9775 11.7827 23.2968C11.8566 24.5805 12.152 25.6859 13.1122 26.6487C14.1093 27.5758 15.2542 27.861 16.5837 27.9323C17.9502 28.0036 22.0495 28.0036 23.416 27.9323C24.7455 27.861 25.9273 27.5758 26.8875 26.6487C27.8477 25.6859 28.1431 24.5805 28.217 23.2968C28.2909 21.9775 28.2909 18.0195 28.217 16.7002ZM26.4443 24.6875C26.1858 25.4006 25.5949 25.9355 24.8932 26.2208C23.7853 26.6487 21.2001 26.5417 20.0183 26.5417C18.7996 26.5417 16.2144 26.6487 15.1434 26.2208C14.4048 25.9355 13.8508 25.4006 13.5554 24.6875C13.1122 23.6534 13.223 21.1574 13.223 19.9807C13.223 18.8397 13.1122 16.3436 13.5554 15.2739C13.8508 14.5964 14.4048 14.0615 15.1434 13.7763C16.2144 13.3484 18.7996 13.4554 20.0183 13.4554C21.2001 13.4554 23.7853 13.3484 24.8932 13.7763C25.5949 14.0259 26.1489 14.5964 26.4443 15.2739C26.8875 16.3436 26.7767 18.8397 26.7767 19.9807C26.7767 21.1574 26.8875 23.6534 26.4443 24.6875Z" fill="white"/>
<defs>
<linearGradient id="paint0_linear_1461_2940" x1="25.9516" y1="68.3235" x2="81.0367" y2="13.2374" gradientUnits="userSpaceOnUse">
<stop stop-color="white"/>
<stop offset="0.147864" stop-color="#F6640E"/>
<stop offset="0.443974" stop-color="#BA03A7"/>
<stop offset="0.733337" stop-color="#6A01B9"/>
<stop offset="1" stop-color="#6B01B9"/>
</linearGradient>
</defs>
</svg>
