<svg version="1.2" xmlns="http://www.w3.org/2000/svg" viewBox="0 0 307 305" width="307" height="305"><style>.a{fill:none}.b{fill:#feef7c}.c{fill:#5cd3cb}</style><path class="a" d="m-215 127h754.2v120.8h-754.2z"/><path fill-rule="evenodd" class="b" d="m241 60.5l-12.6 6.4c24.6 19.9 36.7 45.6 38.9 76.7-1.8 60-30.2 98.6-78.8 115.2-56.3 16.9-91.9 3.2-126.4-31.9l-2.1 13.5 14 14.6c48.7 50.8 129.6 52.5 180.4 3.7 50.8-48.7 52.5-129.6 3.7-180.4z"/><path fill-rule="evenodd" class="c" d="m53 232.9l8.5-7.4c-35.2-49.9-36.7-122.9 11.5-163.1 35.7-29.8 106.5-45.2 163.2 4.7l4.2-7.5-13.8-14.4c-48.7-50.8-129.6-52.5-180.4-3.7-50.8 48.8-52.5 129.6-3.7 180.4z"/><path fill-rule="evenodd" d="m150.4 278.3c-70.7 0-127.8-57.1-127.8-127.8 0-70.7 57.1-127.9 127.8-127.9 70.7 0 127.9 57.2 127.9 127.9 0 70.7-57.2 127.8-127.9 127.8zm-54.7-54.3c-0.7 2.2 0.1 4.6 2 5.9 1.8 1.3 4.3 1.2 6.2-0.2 12.4-9.6 30.5-23.6 40-31 3.8-2.9 9-2.9 12.8 0 9.6 7.4 28 21.5 40.5 31.1 1.8 1.4 4.3 1.5 6.2 0.1 1.9-1.3 2.7-3.7 2-5.8-4.9-15.7-12.3-38.8-15.9-50.3-1.4-4.2 0.1-8.9 3.7-11.5 9.4-7.2 28.1-21.2 40.6-30.6 1.8-1.4 2.5-3.7 1.8-5.9-0.7-2.1-2.7-3.6-5-3.6-15.1 0-37.2 0-48.7 0-4.5 0-8.5-2.8-9.9-7.1-3.9-11.6-11.6-34.6-16.7-49.9-0.7-2.1-2.7-3.5-5-3.5-2.2 0-4.2 1.4-4.9 3.6-5.1 15.2-12.7 38.2-16.5 49.8-1.5 4.2-5.5 7.1-10 7.1h-48.6c-2.2 0-4.2 1.5-5 3.6-0.7 2.2 0.1 4.5 1.9 5.9 12.5 9.3 31.2 23.3 40.6 30.3 3.6 2.7 5.1 7.3 3.8 11.6-3.7 11.6-11 34.7-15.9 50.4z"/></svg>